# xmcd CD database file
# Copyright (C) 1997 Ti Kan
#
# Track frame offsets:
#  150
#  15355
#  31817
#  49960
#  67627
#  84060
#  102777
#  114715
#  129812
#  147617
#
# Disc length: 2228 seconds
#
# Revision: 1
# Processed by: cddbd v1.4b41PL1 Copyright (c) Steve Scherf et al.
# Submitted via: CDWizzard Release:4.32
#
DISCID=7108b20a
DTITLE=Great Plains - Great Plains
DYEAR=1900
DGENRE=
TTITLE0=A Picture Of You
TTITLE1=Faster Gun
TTITLE2=Iola
TTITLE3=Give It Some Time
TTITLE4=Rodeo Drive
TTITLE5=I Can't Fight It Anymore
TTITLE6=Running From The Rain
TTITLE7=Take Me To Topeka
TTITLE8=Rich Man
TTITLE9=Oh Sweetness
EXTD=
EXTT0=
EXTT1=
EXTT2=
EXTT3=
EXTT4=
EXTT5=
EXTT6=
EXTT7=
EXTT8=
EXTT9=
PLAYORDER=
